<?xml version="1.0" encoding="UTF-8" standalone="no"?>
<svg
   xmlns:dc="http://purl.org/dc/elements/1.1/"
   xmlns:cc="http://creativecommons.org/ns#"
   xmlns:rdf="http://www.w3.org/1999/02/22-rdf-syntax-ns#"
   xmlns:svg="http://www.w3.org/2000/svg"
   xmlns="http://www.w3.org/2000/svg"
   version="1.1"
   id="svg2"
   viewBox="0 0 487.74937 282.6"
   height="56.52"
   width="97.549873">
  <g
     id="flowRoot4136"
     style="fill:#ffffff;fill-opacity:1;stroke:none;stroke-width:1px;stroke-linecap:butt;stroke-linejoin:miter;stroke-opacity:1"
     transform="translate(-52.887734,-210.60005)">
    <path
       style="fill:#ffffff"
       id="path4145"
       d="m 215.78773,440.46005 q 26.1,-5.22 42.66,-25.74 16.74,-20.7 16.74,-47.52 0,-3.78 -1.08,-12.24 -0.54,-3.96 -0.9,-6.84 -0.18,-3.06 0,-5.4 0,-1.08 1.44,-6.48 1.08,-3.96 0.54,-5.94 l -0.9,-2.88 q -3.6,5.22 -3.78,15.3 0,4.5 1.26,11.88 0.72,3.78 1.08,6.66 0.36,2.88 0.36,4.86 -0.18,32.4 -23.4,53.28 17.82,-25.92 17.82,-49.14 0,-33.84 -19.08,-56.7 -2.52,-3.06 -2.52,-4.5 0,-1.08 0.72,-1.8 0.72,-0.9 1.62,-1.62 0.9,-0.72 1.62,-1.62 0.72,-0.9 0.72,-2.16 0,-7.2 -5.04,-10.62 -0.18,0.9 -0.54,1.62 -0.36,0.72 -0.72,1.62 -1.62,3.06 -2.7,3.06 -1.44,0 -1.44,-4.86 0,-0.9 1.08,-1.8 2.52,-2.52 2.7,-3.6 0.18,-0.72 -1.44,-1.26 -4.68,1.08 -4.68,5.58 0,7.2 4.86,16.02 -15.3,-15.12 -38.16,-20.52 -0.18,-0.36 -0.18,-1.98 0,-6.3 -2.7,-5.58 -2.7,1.08 -4.32,6.12 -9.54,-1.62 -19.98,-1.62 -0.36,0 -2.88,0.36 -2.34,0.18 -7.02,0.9 l -25.92,3.42 q -6.66,0.9 -13.32,1.44 -6.48,0.36 -12.96,0.54 -13.32,0.18 -24.479996,-7.38 -13.32,-9.18 -13.68,-25.38 -0.18,-10.62 5.58,-18.72 6.66,-9.36 19.079996,-9.72 2.88,0 5.94,0.9 3.06,0.72 5.94,2.34 2.88,1.62 5.22,3.78 2.52,2.16 4.14,4.68 -4.68,1.44 -7.74,7.2 -3.06,5.94 -2.88,10.98 0,3.78 2.16,6.48 -0.9,0.18 -1.62,0.36 -0.72,0 -1.44,0 -3.06,0 -4.86,-2.7 -0.18,-0.36 -0.72,-1.62 -0.54,-1.26 -1.8,-3.78 -3.96,-8.28 -10.979996,-8.82 l -1.08,2.7 q 3.24,0 5.22,2.52 0.36,0.36 0.9,1.8 0.72,1.26 1.979996,3.6 3.96,8.1 12.42,8.1 1.62,0 3.24,-0.54 5.22,5.22 15.66,8.82 9.72,3.06 17.82,3.06 8.1,0 23.76,-3.24 15.66,-3.24 23.76,-3.24 40.68,0 66.06,26.64 22.68,24.12 22.68,57.24 0,31.68 -18.9,59.22 -21.24,30.96 -53.46,30.96 -24.12,0 -44.28,-13.14 2.52,-6.48 2.52,-10.98 -0.36,-21.78 -30.78,-39.42 5.04,1.62 9.54,1.62 13.5,0 23.76,-10.26 9.72,-9.72 9.72,-20.34 0,-11.52 -5.58,-19.8 -6.66,-9.9 -19.62,-9.9 -1.8,-1.8 -1.08,-4.68 0.54,-2.88 2.34,-5.76 3.6,-6.12 7.02,-8.46 l -2.88,-1.98 q -8.46,7.56 -8.46,17.64 0,1.8 0.54,3.42 -2.88,0.54 -6.12,1.98 -11.34,5.22 -11.34,14.58 0,7.02 8.1,10.98 l 4.32,1.62 q 3.6,1.44 3.6,1.8 0,0.36 -0.36,1.44 -0.36,0.9 -0.72,0.54 l 1.98,1.62 q 1.8,-1.26 1.8,-3.78 0,-2.52 -2.52,-4.14 -2.52,-1.8 -5.4,-1.8 -2.88,0 -5.58,-2.52 -2.52,-2.7 -2.52,-5.76 0,-5.4 5.04,-9.9 4.32,-3.78 10.26,-4.68 1.62,4.14 4.86,8.28 l 6.48,7.92 q 8.28,9.9 8.28,17.1 0,9.36 -8.82,15.48 -6.66,4.5 -17.46,6.48 -1.62,0 -1.98,-0.18 19.8,-4.86 19.8,-17.1 0,-7.2 -5.22,-7.2 -0.72,0 -1.62,1.08 -0.72,0.9 -0.72,1.62 0,3.96 1.98,3.96 0.54,0 1.26,-0.9 0.9,-1.08 1.44,-1.08 1.08,0 1.08,1.62 0,3.78 -1.08,4.68 -0.9,0.72 -4.68,0.36 -1.62,1.44 -2.52,3.6 -0.9,2.34 -1.44,3.6 -0.54,1.08 -0.54,1.08 -0.18,-0.18 -0.18,-3.42 0,-3.24 -6.48,-3.24 -6.66,0 -6.66,5.04 0,1.26 1.08,1.98 0.9,0.9 1.62,1.62 0.72,0.54 1.26,1.08 0.18,0.54 -1.26,1.08 -4.14,-1.44 -7.2,-2.34 -3.06,-1.08 -5.04,-1.98 -0.36,-2.52 -0.72,-5.58 -0.18,-3.24 -0.18,-7.2 0,-23.76 7.74,-39.42 9.9,-20.7 31.86,-27.54 0.36,-1.44 -1.98,-2.88 -21.06,4.14 -35.46,18 -14.4,13.86 -20.16,35.1 -0.9,-3.24 -0.9,-6.84 0.36,-11.34 7.74,-22.86 3.42,-5.22 7.38,-9.72 4.14,-4.68 9.18,-8.28 5.58,-3.24 12.42,-6.48 9.36,-4.5 26.46,-6.48 l 0.9,0 q 10.62,0 19.8,1.62 l 0,1.26 q 0,5.04 2.88,9.18 2.88,4.14 2.88,7.2 0,1.62 -0.18,1.98 -3.6,-0.72 -6.84,-0.9 -3.24,-0.36 -5.94,-0.36 -1.44,0 -2.88,0.18 -1.44,0 -2.88,0.18 -12.42,1.98 -12.42,10.44 0,7.02 5.58,7.02 l 0,-3.78 q -1.8,-2.34 -1.8,-4.14 0,-1.8 1.44,-3.24 1.62,-1.62 3.96,-2.7 2.52,-1.08 5.76,-1.62 3.24,-0.54 6.66,-0.54 1.8,0 3.96,0.36 2.34,0.18 5.04,0.54 -0.72,2.88 -3.42,6.12 -2.52,3.06 -4.86,5.76 -6.3,8.28 -6.3,19.62 0,6.84 2.88,12.42 3.6,6.84 11.88,15.48 6.84,7.02 13.86,13.86 10.08,11.16 10.08,21.6 0,6.66 -5.76,13.5 -5.58,6.66 -13.14,6.66 -2.52,0 -5.76,-0.9 -11.16,-3.06 -11.16,-14.4 0,-3.42 2.7,-10.26 2.88,-6.48 2.88,-10.44 0,-8.64 -9.36,-12.06 0,0 -0.36,0.36 0,0.72 1.62,2.52 2.52,3.6 2.52,4.68 0,0.9 -1.44,3.42 l -3.42,5.04 q -4.68,7.38 -4.68,11.88 0,10.44 7.74,16.92 7.2,5.94 18.18,5.94 13.32,0 23.04,-11.52 8.64,-10.44 8.64,-23.22 0,-15.12 -10.62,-28.26 -6.48,-6.3 -11.52,-10.98 -4.86,-4.68 -8.46,-7.56 -10.62,-9.54 -10.98,-16.92 -0.18,-4.32 3.06,-9.54 1.44,-2.34 2.88,-4.5 1.44,-2.16 2.88,-4.32 25.92,6.84 37.8,36.9 -0.18,-0.18 -0.54,-0.18 -9.72,-13.14 -19.98,-13.14 -0.9,0 -2.52,0.54 -3.78,1.62 -3.42,3.6 0.36,0.9 2.52,1.44 0.72,-1.26 1.44,-2.52 0.72,-1.26 2.34,-1.26 1.8,0 3.42,0.54 -0.9,1.98 -2.52,2.88 0,1.44 1.8,1.62 1.98,0.36 3.78,0.9 1.8,0.54 3.78,0.9 4.5,1.44 6.84,3.6 -3.6,-0.54 -3.78,2.34 -0.18,2.88 1.08,5.76 2.16,4.5 5.4,4.5 1.98,0 3.24,-2.88 3.42,11.34 3.42,24.3 0,19.44 -6.66,32.94 -7.74,16.38 -23.94,22.68 -1.98,0.54 -3.6,0.9 -1.62,0.36 -2.7,0.72 l 2.88,2.88 z m -79.56,-143.1 q -5.22,3.06 -9,5.22 -3.78,2.16 -6.12,3.6 -13.86,9 -18.36,9.72 -3.239996,0.54 -6.299996,-1.62 -1.98,0.9 -1.44,1.62 0.36,1.08 1.98,1.98 3.419996,1.98 6.659996,1.98 2.88,-0.18 9.72,-4.68 -4.5,5.04 -7.92,8.82 -3.24,3.6 -5.4,6.12 -8.459996,7.74 -19.619996,7.74 -7.92,0 -7.92,-3.78 0,-2.16 3.78,-3.78 l -3.78,-1.8 q -1.98,3.06 -1.98,5.4 0,1.98 1.44,3.78 3.24,3.96 9,3.96 10.8,0 19.079996,-6.66 3.42,-2.7 14.22,-15.3 -5.04,9.36 -5.04,21.06 0,10.26 2.88,15.48 -0.36,3.6 -0.72,6.48 -0.18,2.88 -0.18,4.86 0,24.48 13.86,44.28 13.14,18.54 36.54,29.52 -3.42,2.88 -8.1,2.88 -9.72,0 -16.92,-7.56 l -0.9,0.9 q 6.48,8.46 16.38,8.46 5.94,0 10.98,-4.14 21.6,9.9 43.38,9.9 33.12,0 57.78,-17.1 21.06,-14.94 32.76,-39.6 10.26,-21.78 10.26,-43.74 0,-38.52 -24.12,-65.16 -27.72,-30.42 -78.12,-30.42 -13.5,0 -33.48,7.74 -20.52,7.56 -34.56,7.38 -9.72,-0.36 -16.38,-5.58 6.12,-4.32 7.38,-12.96 3.42,1.62 7.02,3.24 3.78,1.44 7.38,1.26 1.8,0 4.32,-2.16 5.76,-5.22 5.94,-10.08 0.18,-2.34 -2.7,-2.88 -0.72,5.58 -4.86,5.58 -3.96,0 -9.54,-2.7 -5.94,-2.88 -9.18,-3.42 -3.6,-6.48 -12.06,-10.44 -8.46,-4.32 -16.199996,-4.14 -5.04,0.18 -11.16,4.5 -5.58,3.96 -8.46,8.64 -5.04,7.74 -5.04,22.86 0,5.94 2.34,10.8 -7.56,-3.42 -14.4,-3.42 -2.88,0 -5.58,2.34 -2.88,2.16 -2.88,5.04 0,3.06 1.98,3.06 2.7,0 2.7,-1.98 0,0.18 -1.62,-2.88 -0.54,-1.26 3.6,-2.16 1.08,2.52 2.16,2.88 1.26,0.18 2.52,-0.54 l 3.06,-1.44 q 1.62,-0.9 3.6,0 l 3.06,1.08 q -1.98,3.06 -1.98,6.3 0,2.34 1.08,4.68 8.46,-0.9 9.18,-4.5 13.32,11.7 38.879996,11.7 2.34,0 5.58,-0.18 3.42,-0.36 7.92,-1.08 4.5,-0.72 7.92,-0.9 3.42,-0.36 5.76,-0.36 -2.16,0 -6.12,2.52 l -0.9,0.54 q -4.32,3.06 -5.04,3.24 z m -20.34,-40.5 q 0,-2.52 1.98,-4.14 1.98,-1.62 4.5,-1.62 2.7,0 2.7,1.8 0,1.8 -1.08,3.96 -2.52,5.22 -5.04,7.02 -3.06,-3.6 -3.06,-7.02 z m 66.06,97.74 q 0,7.74 -6.12,15.48 2.34,-3.96 2.34,-9.18 0,-9 -7.2,-18 -5.04,-6.48 -7.92,-10.44 -2.88,-4.14 -3.6,-5.76 8.64,0.36 15.84,9.72 6.66,8.82 6.66,18.18 z m -47.88,28.98 q 15.84,7.02 25.02,16.92 -3.6,5.04 -3.6,5.94 0,3.42 3.06,4.86 1.44,-0.54 2.52,-1.62 1.8,-2.16 2.34,-2.16 0.54,0 0.54,3.06 0,2.52 -1.8,5.04 -1.8,2.34 -4.14,2.34 -1.98,-0.54 -1.62,-0.9 l -1.8,1.8 q 2.16,1.08 4.68,1.08 7.02,0 6.3,-9.9 3.06,6.66 3.06,12.96 0,4.32 -1.44,9.54 -26.1,-18.18 -33.12,-48.96 z m 97.2,47.88 q 23.22,-18.36 23.22,-57.96 0,-9.72 -3.24,-19.98 -5.22,-16.02 -16.74,-27.9 -12.24,-12.24 -28.08,-16.56 2.7,-4.86 2.7,-8.46 0,-2.52 -3.42,-10.08 27.72,7.2 43.92,29.7 14.04,19.44 15.12,45.9 0.36,9.36 -1.26,16.92 -3.6,17.1 -20.88,41.94 -5.22,3.6 -11.34,6.48 z m -32.22,-12.24 q 1.98,2.52 5.58,2.52 15.84,0 15.84,-16.74 0,-7.02 -5.4,-14.94 -1.44,-2.16 -4.14,-5.22 -2.52,-3.06 -6.48,-7.02 -4.14,-4.14 -7.02,-7.38 -2.88,-3.24 -4.32,-5.22 -5.58,-7.74 -6.48,-15.3 l -0.9,0.18 q 1.62,16.56 17.46,31.32 8.46,7.92 10.44,10.62 5.04,6.66 5.04,13.68 0,7.02 -5.94,10.98 3.06,-3.6 3.06,-7.2 0,-1.8 -1.08,-3.6 -1.08,-1.98 -2.7,-3.42 -1.62,-1.62 -3.6,-2.52 -1.98,-0.9 -3.78,-0.9 -3.24,0 -2.88,2.16 0.18,1.62 1.98,1.62 0.72,0 1.62,-0.36 0.9,-0.54 1.44,-0.54 4.68,0 6.48,5.04 -3.06,-1.98 -4.14,-1.44 -1.26,0.54 -1.26,2.16 0,3.96 4.32,7.38 -1.98,3.78 -6.3,3.78 -3.06,0 -5.22,-0.9 l -1.62,1.26 z m -32.22,31.5 q 8.64,8.64 25.92,12.78 1.44,0.36 4.5,0.9 3.06,0.54 7.92,1.44 3.96,0.72 7.02,1.44 3.06,0.72 5.4,1.44 10.98,3.42 11.34,12.78 0.18,4.68 -5.94,7.56 -4.68,2.34 -10.26,2.34 -3.78,0 -7.38,-1.26 -8.1,-3.06 -9,-7.74 -0.54,-2.34 2.52,-4.32 l -0.9,-1.8 q -2.88,3.42 -2.88,6.3 0,4.68 6.48,7.92 5.58,2.7 11.52,2.7 6.66,0 12.42,-2.7 7.38,-3.24 7.2,-9.18 -0.18,-7.2 -5.76,-10.62 -1.98,-1.26 -5.04,-2.34 -3.06,-0.9 -7.2,-1.8 l -18.36,-3.78 q -5.04,-1.26 -9.54,-2.88 -4.32,-1.62 -7.92,-3.78 2.34,1.26 4.86,2.16 2.7,1.08 5.76,1.98 15.12,3.78 25.02,3.24 3.6,-0.18 6.66,-0.36 3.06,0 5.58,-0.18 32.22,-0.72 54.36,-9 2.52,-1.26 5.22,-2.34 2.7,-1.08 5.22,-2.16 7.38,-3.42 10.08,-3.42 1.44,0 6.48,0.9 4.68,1.08 4.68,1.98 0,1.08 -0.9,1.8 -0.9,0.72 -0.9,1.44 0,2.34 2.7,2.34 2.88,0 2.88,-5.58 0,-4.68 -12.96,-4.68 -3.78,0 -8.64,1.8 -3.96,1.44 -6.12,1.98 -1.98,0.72 -2.34,0.9 12.06,-6.84 20.52,-13.86 10.62,-9.54 10.62,-15.12 0,-1.44 -1.26,-2.52 -1.08,-1.26 -2.52,-1.26 -1.08,0 -1.08,3.06 0,1.08 1.08,2.16 1.08,1.08 0.9,2.16 0,1.08 -3.24,4.32 -7.2,7.2 -22.14,16.02 -27.9,16.56 -62.82,17.28 -21.78,0.18 -35.28,-3.24 4.32,1.26 10.08,1.26 l 9.72,0 q 43.56,0 76.68,-34.2 6.84,-7.02 12.24,-14.76 5.4,-7.74 9.54,-16.38 9,-19.08 9,-36.72 0,-47.52 -26.1,-82.8 -30.6,-40.86 -84.24,-43.56 -4.32,-3.96 -4.32,-9.18 0,-3.96 2.52,-6.48 2.52,-2.7 6.48,-2.7 3.42,0 6.84,2.34 3.6,2.16 3.6,5.4 -0.72,3.42 -1.8,3.06 l 0.9,0.54 q 1.8,-1.26 1.8,-3.6 0,-4.14 -3.6,-6.84 -3.42,-2.7 -7.74,-2.7 -4.32,0 -7.56,3.42 -3.06,3.42 -3.06,7.92 0,2.16 1.08,3.42 1.62,3.06 1.62,3.6 0,1.44 -4.32,1.44 -11.88,0 -25.38,6.66 -14.22,7.02 -14.22,15.3 0,6.48 5.04,7.2 1.62,0.36 3.42,-0.9 l 0,-1.8 q -1.44,0.54 -2.34,0.54 -4.14,0 -4.14,-4.32 0,-8.1 15.66,-14.94 14.22,-5.94 27.72,-5.94 l 1.44,0 q 7.74,7.2 26.28,15.84 0.9,0.36 8.1,3.6 7.2,3.24 20.7,9 30.06,12.96 45.18,50.76 6.66,16.2 6.66,38.52 0,18.54 -7.38,37.98 -12.24,31.32 -37.62,49.68 -26.82,19.98 -59.04,19.26 -21.24,-0.54 -42.12,-7.92 l -1.8,1.8 z m 132.12,-160.56 q -6.84,-10.26 -15.66,-18.36 -8.46,-8.28 -23.94,-15.3 -6.66,-2.88 -13.14,-5.58 -6.48,-2.88 -13.14,-5.76 -16.38,-7.56 -23.04,-12.78 28.44,1.08 52.02,16.92 22.68,14.94 36.9,40.86 z" />
    <path
       style="fill:#ffffff"
       id="path4147"
       d="m 345.34555,423.00005 q 8.1,4.68 12.24,7.74 7.56,4.86 12.96,4.86 12.06,0 19.62,-8.64 7.74,-8.82 7.74,-21.24 0,-7.92 -8.1,-21.24 -7.92,-13.68 -7.92,-20.7 0,-0.9 0.9,-3.96 1.98,-7.38 1.98,-8.64 -0.18,-0.9 -1.98,0.54 -13.14,11.88 -13.14,30.06 0,6.66 7.56,17.46 7.56,10.8 7.56,17.46 0,3.06 -1.26,5.94 -1.26,2.88 -3.42,5.22 -1.98,2.16 -4.68,3.6 -2.7,1.26 -5.76,1.26 -3.42,0 -6.84,-1.98 -1.62,-0.9 -3.78,-2.7 -2.16,-1.98 -5.04,-4.68 -5.4,-5.58 -8.64,-7.56 l 0,-55.8 q 6.12,-12.96 13.5,-12.96 2.7,0 8.64,1.98 5.4,1.8 8.82,1.8 5.04,0 12.96,-7.02 4.5,-3.96 4.5,-6.3 0,-1.44 -2.52,-1.8 -4.32,3.78 -7.02,3.78 -3.42,0.18 -10.62,-1.8 -7.02,-2.16 -10.44,-1.98 -5.76,0.36 -10.62,5.4 -1.08,1.26 -2.88,3.78 -1.8,2.52 -4.32,6.48 l 0,-13.14 q 0,-3.42 -5.4,-3.24 -9,13.14 -15.48,16.74 -0.9,1.62 -0.72,2.7 0,1.44 1.08,1.44 0.9,0 1.98,-0.54 1.08,-0.54 1.62,-0.54 0.54,0 0.9,0.18 l 0,61.74 q -0.54,0.36 -2.16,2.16 -3.96,4.68 -4.14,7.56 -0.36,1.62 2.34,1.62 1.26,-3.42 3.96,-5.22 l 0,58.14 q 0,3.6 5.4,3.24 9.36,-13.14 15.48,-16.74 0.72,-1.08 0.9,-2.52 0,-1.62 -1.26,-1.62 l -1.62,0.36 q 0.72,-15.12 7.56,-18.72 1.26,-0.72 4.14,-0.9 2.52,-0.36 2.7,-0.72 0.36,-1.44 -0.36,-3.06 -0.54,-1.44 -1.98,-1.08 -4.5,0 -7.38,2.88 -6.3,5.58 -6.12,21.78 l -1.44,0.36 0,-41.22 z m 19.08,-50.58 q 0.54,-0.54 0.54,-1.08 0,-1.44 -2.88,-2.7 -13.86,3.78 -13.86,42.48 l 1.62,0 q 0,-35.46 14.58,-38.7 z" />
    <path
       style="fill:#ffffff"
       id="path4149"
       d="m 467.10711,339.84005 q 0,-3.96 -6.12,-3.78 -1.62,2.34 -3.24,4.68 -1.62,2.34 -3.24,4.86 -1.98,2.52 -3.96,4.5 -1.98,1.98 -4.32,3.24 -0.72,1.26 -0.72,2.7 0,1.44 1.08,1.44 0.9,0 1.98,-0.54 1.08,-0.54 1.62,-0.54 0.54,0 0.9,0.18 l 0,57.06 q -5.76,10.08 -14.58,10.08 -2.52,0 -8.64,-1.44 -5.76,-1.44 -8.46,-1.44 -2.34,0 -3.6,0.72 17.46,-22.86 17.82,-51.12 0.36,-15.66 -8.64,-26.82 -5.94,-7.56 -9.54,-7.56 -2.16,0 -3.96,2.34 -1.98,2.52 -4.86,8.28 -1.44,2.88 -2.7,5.04 -1.26,1.98 -2.34,3.24 0,1.8 1.98,1.8 0.36,-0.18 1.8,-1.44 1.44,-1.26 1.98,-1.26 4.14,0 6.84,3.42 7.2,9 7.2,28.44 0,10.98 -2.88,21.78 -3.6,13.32 -8.28,18 l -0.54,0.54 q -0.36,0.36 -1.08,0.9 -0.54,0.54 -1.44,1.26 -4.14,4.14 -4.32,5.58 -0.36,1.08 1.62,1.08 6.48,-2.88 9.36,-2.88 1.44,0 3.42,0.54 2.16,0.36 4.32,0.9 2.34,0.54 4.68,1.08 2.34,0.36 4.32,0.36 3.78,0 6.84,-1.62 3.78,-1.8 7.56,-6.12 0.18,-0.18 1.62,-1.98 1.62,-1.98 4.5,-5.76 l 0,12.78 q 0,3.6 5.4,3.24 9,-13.14 15.48,-16.74 0.36,-0.72 0.72,-2.7 0,-1.62 -1.08,-1.44 l -1.62,0.36 q -0.18,-2.34 -0.36,-4.32 0,-1.98 0,-3.78 0,-5.58 0.9,-8.28 1.44,-4.14 5.58,-5.4 0.36,-1.08 0.36,-1.62 0,-0.72 -1.62,-1.8 -1.44,0 -2.7,0.54 -3.06,1.44 -3.78,10.8 -0.18,2.52 -0.18,6.12 0,3.42 0.36,7.92 l -1.44,0.36 0,-75.78 z m -20.16,34.02 q 0.72,-2.7 -2.88,-3.78 -11.34,6.84 -11.34,22.32 0,4.32 1.62,13.5 1.26,8.1 2.52,8.1 0.36,0 0.54,-0.18 -2.7,-19.62 -2.7,-21.24 0,-5.94 3.42,-11.52 3.6,-5.76 8.82,-7.2 z" />
    <path
       style="fill:#ffffff"
       id="path4151"
       d="m 481.59711,408.42005 q 4.32,-4.32 9,-7.92 6.84,-5.22 10.62,-5.22 6.12,0 11.16,3.42 5.76,3.78 5.76,9.72 0,16.02 -15.84,29.7 -4.5,3.78 -7.2,6.12 -2.52,2.52 -3.42,3.6 -5.4,6.3 -5.4,12.6 0,11.34 4.14,16.56 4.5,5.94 16.2,5.94 10.44,0 18.72,-6.66 3.6,-2.88 6.48,-5.76 2.88,-2.88 5.22,-5.94 3.6,-5.22 3.6,-7.38 0,-0.54 -0.18,-0.72 -5.4,2.34 -9.54,6.12 l -8.46,7.92 q -10.62,9.54 -18.72,9.54 -14.58,0 -14.58,-15.66 0,-5.22 3.42,-9.36 3.6,-3.96 9.54,-8.1 1.44,-0.9 4.14,-2.52 2.7,-1.62 6.48,-3.96 23.58,-13.86 23.58,-30.78 0,-4.5 -1.62,-9.18 -2.88,-7.2 -9,-11.34 -6.12,-4.32 -13.86,-4.32 -8.28,0 -16.92,5.94 l 12.6,-16.56 7.92,-2.52 q 3.06,-1.98 3.06,-3.42 0,-1.08 -1.8,-1.62 l -5.04,2.16 23.58,-30.96 q 1.08,-1.8 1.08,-2.52 -1.26,0.36 -2.88,1.26 -3.06,1.98 -4.68,3.06 -1.62,0.9 -1.62,0.9 -2.16,0 -4.14,-0.18 -1.8,-0.36 -3.6,-0.72 -2.52,-0.72 -5.04,-1.44 -2.34,-0.72 -4.86,-1.44 -5.4,-1.8 -9.9,-1.8 -6.84,0 -11.52,3.42 -5.58,3.78 -5.58,10.08 0,4.32 5.22,9.18 l 3.6,3.42 q 1.62,1.62 1.62,3.24 0,0.54 -1.08,1.08 -3.06,1.98 -3.06,2.52 0,0.72 2.16,0.9 5.76,-1.44 5.76,-6.3 0,-4.32 -6.3,-9 -6.12,-4.5 -6.12,-5.58 0,-1.26 1.44,-2.34 1.44,-1.26 2.88,-1.26 2.34,0 5.58,1.08 2.52,1.08 5.22,2.16 2.7,1.08 5.22,2.16 6.12,2.16 10.8,2.16 2.16,0 4.86,-1.62 1.98,-1.26 3.06,-1.8 1.26,-0.54 1.44,-0.72 l -16.74,22.5 -12.42,5.22 q 0.36,0.72 2.16,0.9 1.8,0.18 2.52,0 l 4.14,-1.26 -22.86,30.6 q -1.44,2.52 -1.08,3.78 l 1.08,-1.08 z m 34.74,50.76 q 2.88,-0.72 2.7,-2.16 -0.36,-1.8 -1.8,-3.06 -4.14,-3.78 -8.46,-3.78 -9.72,0 -13.14,10.8 0.18,0.54 0.9,0.54 3.24,-7.56 12.06,-7.56 5.22,0 7.74,5.22 z" />
  </g>
</svg>
